<?xml version="1.0" standalone="no"?>
<!DOCTYPE svg PUBLIC "-//W3C//DTD SVG 20010904//EN"
 "http://www.w3.org/TR/2001/REC-SVG-20010904/DTD/svg10.dtd">
<svg version="1.0" xmlns="http://www.w3.org/2000/svg"
 width="1000.000000pt" height="1000.000000pt" viewBox="0 0 1000.000000 1000.000000"
 preserveAspectRatio="xMidYMid meet">
<metadata>
Created by potrace 1.11, written by Peter Selinger 2001-2013
</metadata>
<g transform="translate(0.000000,1000.000000) scale(0.100000,-0.100000)"
fill="#000000" stroke="none">
<path d="M958 9044 c-10 -10 -10 -8081 0 -8087 4 -3 1824 -2 4045 1 l4037 5 0
4038 0 4039 -3562 0 c-1960 0 -3777 3 -4038 6 -261 4 -478 3 -482 -2z m3682
-1244 l0 -340 -945 0 -945 0 0 -385 0 -385 835 0 835 0 0 -325 0 -325 -835 0
-835 0 0 -415 0 -415 980 0 980 0 0 -340 0 -340 -1397 2 -1398 3 -3 1803 -2
1802 1365 0 1365 0 0 -340z m3450 0 l0 -340 -940 0 -940 0 0 -470 0 -470 830
0 830 0 0 -335 0 -335 -830 0 -830 0 -2 -657 -3 -658 -422 -3 -423 -2 0 1805
0 1805 1365 0 1365 0 0 -340z m0 -5250 l0 -640 -3090 0 -3090 0 0 640 0 640
3090 0 3090 0 0 -640z"/>
</g>
</svg>
