<?xml version="1.0" encoding="utf-8"?>
<!-- Generator: Adobe Illustrator 24.0.2, SVG Export Plug-In . SVG Version: 6.00 Build 0)  -->
<svg version="1.1" id="Layer_1" xmlns="http://www.w3.org/2000/svg" xmlns:xlink="http://www.w3.org/1999/xlink" x="0px" y="0px"
	 viewBox="0 0 1000 1000" style="enable-background:new 0 0 1000 1000;" xml:space="preserve">
<style type="text/css">
	.st0{fill:url(#SVGID_1_);}
	.st1{fill:url(#SVGID_2_);}
	.st2{opacity:0.2;fill:url(#SVGID_3_);}
	.st3{fill:url(#SVGID_4_);}
	.st4{fill:url(#SVGID_5_);}
	.st5{fill:url(#SVGID_6_);}
</style>
<g>
	<g>
		<linearGradient id="SVGID_1_" gradientUnits="userSpaceOnUse" x1="-9.3621" y1="-6.2625" x2="1007.3611" y2="1004.2737">
			<stop  offset="0" style="stop-color:#9B009B"/>
			<stop  offset="0.1282" style="stop-color:#900AA1"/>
			<stop  offset="0.3559" style="stop-color:#7124B0"/>
			<stop  offset="0.6566" style="stop-color:#404FCA"/>
			<stop  offset="1" style="stop-color:#0087EB"/>
		</linearGradient>
		<path class="st0" d="M0,0v1000h1000V0H0z M904.3,904.3H95.7V95.7h808.6V904.3z"/>
		<linearGradient id="SVGID_2_" gradientUnits="userSpaceOnUse" x1="95.6995" y1="500" x2="904.3005" y2="500">
			<stop  offset="0" style="stop-color:#111111"/>
			<stop  offset="1.089275e-03" style="stop-color:#111111"/>
			<stop  offset="0.3207" style="stop-color:#242424"/>
			<stop  offset="0.6493" style="stop-color:#2F2F2F"/>
			<stop  offset="1" style="stop-color:#333333"/>
		</linearGradient>
		<rect x="95.7" y="95.7" class="st1" width="808.6" height="808.6"/>
		<linearGradient id="SVGID_3_" gradientUnits="userSpaceOnUse" x1="-9.3621" y1="-6.2625" x2="1007.361" y2="1004.2737">
			<stop  offset="0" style="stop-color:#FFFFFF"/>
			<stop  offset="1" style="stop-color:#231F20"/>
		</linearGradient>
		<path class="st2" d="M0,0v1000h1000V0H0z M904.3,904.3H95.7V95.7h808.6V904.3z"/>
	</g>
	<g>
		<g>
			<linearGradient id="SVGID_4_" gradientUnits="userSpaceOnUse" x1="66.6513" y1="308.2493" x2="684.0269" y2="930.6854">
				<stop  offset="0" style="stop-color:#FFFFFF"/>
				<stop  offset="1" style="stop-color:#D1D3D4"/>
			</linearGradient>
			<rect x="191.4" y="681.7" class="st3" width="617.2" height="126.9"/>
		</g>
		<g>
			<linearGradient id="SVGID_5_" gradientUnits="userSpaceOnUse" x1="169.3498" y1="206.3857" x2="786.7254" y2="828.8218">
				<stop  offset="0" style="stop-color:#FFFFFF"/>
				<stop  offset="1" style="stop-color:#D1D3D4"/>
			</linearGradient>
			<path class="st4" d="M470.44,479.21v66.83H191.8V186.18h271.95v66.83H274.57v78.14h167.08v64.77H274.57v83.28H470.44z"/>
			<linearGradient id="SVGID_6_" gradientUnits="userSpaceOnUse" x1="343.2298" y1="33.9194" x2="960.6054" y2="656.3555">
				<stop  offset="0" style="stop-color:#FFFFFF"/>
				<stop  offset="1" style="stop-color:#D1D3D4"/>
			</linearGradient>
			<path class="st5" d="M620.03,253.02v95.1h166.56v66.83H620.03v131.09h-83.28V186.18H808.7v66.83H620.03z"/>
		</g>
	</g>
</g>
</svg>
